<?xml version="1.0" encoding="UTF-8" standalone="no"?>
<!-- Created with Inkscape (http://www.inkscape.org/) -->

<svg
   version="1.1"
   id="svg1"
   width="850.25586"
   height="132.02966"
   viewBox="0 0 850.25586 132.02966"
   sodipodi:docname="mtale_f.svg"
   inkscape:version="1.4.2 (ebf0e940d0, 2025-05-08)"
   xml:space="preserve"
   inkscape:export-filename="mtale.png"
   inkscape:export-xdpi="96"
   inkscape:export-ydpi="96"
   xmlns:inkscape="http://www.inkscape.org/namespaces/inkscape"
   xmlns:sodipodi="http://sodipodi.sourceforge.net/DTD/sodipodi-0.dtd"
   xmlns="http://www.w3.org/2000/svg"
   xmlns:svg="http://www.w3.org/2000/svg"><defs
     id="defs1"><inkscape:path-effect
       effect="fillet_chamfer"
       id="path-effect1"
       is_visible="true"
       lpeversion="1"
       nodesatellites_param="F,0,0,1,0,12.906749,0,1 @ F,0,0,1,0,12.292672,0,1 @ F,0,0,1,0,11.062724,0,1 @ F,0,0,1,0,12.142826,0,1 @ F,0,0,1,0,12.122095,0,1 @ F,0,0,1,0,12.792812,0,1"
       radius="0"
       unit="px"
       method="auto"
       mode="F"
       chamfer_steps="1"
       flexible="false"
       use_knot_distance="true"
       apply_no_radius="true"
       apply_with_radius="true"
       only_selected="false"
       hide_knots="false" /><inkscape:path-effect
       effect="fillet_chamfer"
       id="path-effect9"
       is_visible="true"
       lpeversion="1"
       nodesatellites_param="C,0,0,1,0,0,0,1 @ C,0,0,1,0,0,0,1 @ C,0,0,1,0,0,0,1 @ C,0,0,1,0,0,0,1 @ C,0,0,1,0,0,0,1 @ C,0,0,1,0,0,0,1 @ C,0,0,1,0,0,0,1 @ C,0,0,1,0,0,0,1 @ C,0,0,1,0,0,0,1 @ C,0,0,1,0,0,0,1 @ C,0,0,1,0,0,0,1 @ C,0,0,1,0,0,0,1 @ C,0,0,1,0,0,0,1 @ C,0,0,1,0,0,0,1 @ C,0,0,1,0,0,0,1 @ C,0,0,1,0,0,0,1 @ C,0,0,1,0,0,0,1 @ C,0,0,1,0,0,0,1 @ C,0,0,1,0,0,0,1 @ C,0,0,1,0,0,0,1 @ C,0,0,1,0,0,0,1 @ C,0,0,1,0,6.2003655,0,1 @ C,0,0,1,0,0,0,1 @ C,0,0,1,0,0,0,1 @ C,0,0,1,0,0,0,1 @ C,0,0,1,0,0,0,1 @ C,0,0,1,0,0,0,1 @ C,0,0,1,0,0,0,1"
       radius="0"
       unit="px"
       method="auto"
       mode="C"
       chamfer_steps="1"
       flexible="false"
       use_knot_distance="true"
       apply_no_radius="true"
       apply_with_radius="true"
       only_selected="false"
       hide_knots="false" /></defs><sodipodi:namedview
     id="namedview1"
     pagecolor="#ffffff"
     bordercolor="#000000"
     borderopacity="0.25"
     inkscape:showpageshadow="2"
     inkscape:pageopacity="0.0"
     inkscape:pagecheckerboard="0"
     inkscape:deskcolor="#d1d1d1"
     inkscape:zoom="1.0514405"
     inkscape:cx="249.18196"
     inkscape:cy="44.225042"
     inkscape:window-width="1920"
     inkscape:window-height="1131"
     inkscape:window-x="0"
     inkscape:window-y="0"
     inkscape:window-maximized="1"
     inkscape:current-layer="g6" /><g
     inkscape:groupmode="layer"
     inkscape:label="Image"
     id="g1"
     transform="translate(90.979583,-165.34393)"><path
       id="path1"
       style="fill:#0f172a;fill-opacity:1;stroke-width:1.05042"
       d="m 305.66631,165.34393 c 5.73339,3.30781 10.86117,6.90077 14.62479,12.37109 5.18719,7.43464 7.85048,16.33933 8.73633,25.31055 h 26.83399 v 94.29688 h 43.38085 v -94.29688 h 24.41211 l 14.92383,-37.66016 z"
       sodipodi:nodetypes="cccccccccc" /><path
       id="path2"
       style="fill:#0f172a;fill-opacity:1;stroke-width:1.04708"
       d="m 452.77231,165.35001 5.92457,10.02699 -44.07952,121.94572 h 41.71542 l 5.56259,-16.5467 h 50.61354 l 7.09028,16.5467 h 42.13261 l -44.26358,-122.48358 5.70372,-9.48913 z m 35.83786,41.68882 12.9801,37.65801 h -26.35078 z"
       sodipodi:nodetypes="ccccccccccccccc" /><path
       style="fill:#0f172a;fill-opacity:1;stroke-width:1.04805"
       d="m 607.24047,165.34393 v 94.18794 h 37.16917 l 14.76206,37.79085 H 566.85969 V 180.01364 L 558.10086,165.35 Z"
       id="path3"
       sodipodi:nodetypes="cccccccc" /><path
       style="fill:#0f172a;fill-opacity:1;stroke-width:1.03628"
       d="M 746.8909,199.89134 759.27625,165.35 H 663.0834 v 131.97272 h 93.16531 v -35.9175 H 698.58806 V 245.5795 h 27.6606 l 9.63305,-28.6239 h -38.11933 v -17.06426 z"
       id="path4"
       sodipodi:nodetypes="ccccccccccccc" /><g
       id="g6"
       transform="matrix(0.77142635,0,0,0.77142635,-179.66965,52.927569)"><path
         id="path6"
         style="opacity:1;fill:#0f172a"
         d="M 485.54205,231.33333 A 85.542053,85.542053 0 0 1 400,316.87538 85.542053,85.542053 0 0 1 314.45795,231.33333 85.542053,85.542053 0 0 1 400,145.79128 a 85.542053,85.542053 0 0 1 85.54205,85.54205 z" /><path
         id="path5"
         style="display:inline;opacity:1;fill:#1f2e4c;fill-opacity:1"
         inkscape:transform-center-x="0.2732404"
         inkscape:transform-center-y="-4.3816435"
         transform="matrix(0,0.85588917,-0.85588917,0,596.2337,137.41416)"
         d="m 79.05714,176.34263 h 62.86083 l 31.43042,54.43908 -31.43042,54.43908 H 79.05714 L 47.626724,230.78171 Z" /></g><path
       id="text9"
       style="font-size:188.257px;font-family:'Russo One';-inkscape-font-specification:'Russo One';fill:#0f172a;fill-opacity:1;stroke-width:1.16612"
       d="m -90.979583,167.44397 c 0,43.30667 0,86.61334 0,129.92001 14.340616,0 28.681232,0 43.021849,0 0,-16.45984 0,-32.91968 0,-49.37952 4.746809,8.47834 9.495246,16.95576 14.241028,25.43467 10.371719,0 20.743435,0 31.1151533,0 4.745786,-8.47891 9.494217,-16.95633 14.2410287,-25.43467 0,16.45984 0,32.91968 0,49.37952 14.340616,0 28.681233,0 43.021849,0 0,-43.98652 0,-87.97305 0,-131.95956 -14.088328,0 -28.176655,0 -42.264983,0 -10.1843457,18.84373 -20.3704477,37.68653 -30.555471,56.52991 -10.185022,-18.84338 -20.371126,-37.68618 -30.555472,-56.52991 -14.088327,0 -28.176655,0 -42.264982,0 0,0.67985 0,1.3597 0,2.03955 z" /><path
       id="text10"
       style="font-size:146.667px;font-family:'Russo One';-inkscape-font-specification:'Russo One';fill:#0f172a;fill-opacity:1;stroke-width:1.16612"
       d="m 273.51304,165.40806 c -23.45753,0 -46.91506,0 -70.37259,0 0,43.98651 0,87.97304 0,131.95956 25.07442,-0.0119 50.14955,0.0425 75.2235,-0.0449 8.85885,-0.25669 17.92612,-2.15042 25.44151,-7.03916 7.92894,-5.06273 13.39695,-13.45116 15.70216,-22.49384 1.88243,-6.90286 2.01891,-14.11514 1.9093,-21.22254 -0.0162,-12.87812 0.0541,-25.75761 -0.0652,-38.63478 -0.31831,-8.82275 -2.33618,-17.84085 -7.3441,-25.23615 -5.01192,-7.49192 -12.89884,-12.88864 -21.57909,-15.20648 -6.13663,-1.74165 -12.56265,-2.18141 -18.91553,-2.08169 z m -4.49937,36.18217 c 2.61439,0.0396 5.59399,0.25872 7.50387,2.27176 1.95592,2.38124 1.8748,5.6528 1.87541,8.56576 -0.0167,13.71896 0.055,27.44002 -0.0634,41.15761 -0.18237,2.38573 -0.85271,5.15537 -3.13344,6.37715 -3.03336,1.60501 -6.57601,1.15199 -9.87949,1.22294 -6.38476,0 -12.76953,0 -19.15429,0 0,-19.86508 0,-39.73014 0,-59.59522 7.61713,0 15.23425,0 22.85138,0 z" /></g></svg>
